<svg width="80" height="16" viewBox="0 0 80 16" fill="none" xmlns="http://www.w3.org/2000/svg">
<path d="M12 15.1453L10.4176 11.056H3.56044L1.95604 15.1453H0L6.13187 0H7.82418L13.956 15.1453H12ZM4.1978 9.4117H9.75824L6.98901 2.27179L4.1978 9.4117Z" fill="black"/>
<path d="M20.3297 15.3183C18.6593 15.3183 17.3407 14.7557 16.3956 13.6523C15.4286 12.5705 14.9451 11.229 14.9451 9.69289C14.9451 8.15672 15.4286 6.83692 16.3956 5.71185C17.3626 4.58677 18.6593 4.0675 20.3297 4.0675C21.6264 4.0675 22.7473 4.41368 23.6923 5.10604C24.6374 5.79839 25.2088 6.72874 25.3626 7.91873H23.6264C23.5165 7.24801 23.1429 6.70711 22.5275 6.27439C21.9121 5.84166 21.1868 5.6253 20.3517 5.6253C19.1868 5.6253 18.3077 6.01475 17.6923 6.77202C17.0769 7.52928 16.7692 8.5029 16.7692 9.69289C16.7692 10.8829 17.0769 11.8565 17.6923 12.6138C18.3077 13.371 19.1868 13.7605 20.3517 13.7605C21.1868 13.7605 21.8901 13.5657 22.4615 13.1763C23.033 12.7868 23.4286 12.2676 23.6264 11.6185H25.3407C25.1429 12.7436 24.6154 13.6307 23.7363 14.3014C22.8571 14.9721 21.7143 15.3183 20.3297 15.3183Z" fill="black"/>
<path d="M35.5385 11.6402H37.3187C37.1209 12.7652 36.5714 13.6523 35.6483 14.323C34.7253 14.9938 33.5824 15.3183 32.2198 15.3183C30.6154 15.3183 29.2967 14.7558 28.2857 13.6523C27.2747 12.5489 26.7692 11.2074 26.7692 9.60637C26.7692 8.0053 27.2527 6.64223 28.2198 5.6037C29.1868 4.56516 30.4615 4.0459 32.044 4.0459C33.6264 4.0459 34.8791 4.52189 35.8022 5.47388C36.7253 6.42587 37.2088 7.65912 37.2088 9.15201C37.2088 9.45492 37.1868 9.71455 37.1648 9.90928H28.5055C28.5714 11.0344 28.967 11.9647 29.6483 12.6787C30.3297 13.3927 31.2088 13.7605 32.2418 13.7605C34.0659 13.7821 35.1648 13.0681 35.5385 11.6402ZM32.044 5.53879C31.0989 5.53879 30.3297 5.79842 29.7363 6.31769C29.1429 6.83695 28.7472 7.57258 28.5934 8.5462H35.4066C35.3407 7.61585 34.989 6.88023 34.3956 6.36096C33.8022 5.84169 33.033 5.53879 32.044 5.53879Z" fill="black"/>
<path d="M39.5385 15.1452V4.24059H41.2967V6.33929C41.5824 5.60367 42.044 5.04113 42.6813 4.65168C43.3187 4.26223 44.0879 4.0675 44.9451 4.0675C46.1978 4.0675 47.1868 4.47859 47.9341 5.27913C48.6813 6.07966 49.055 7.16147 49.055 8.48127V15.1452H47.2967V8.76254C47.2967 7.83218 47.055 7.07492 46.5495 6.49075C46.044 5.90657 45.3626 5.6253 44.5495 5.6253C43.6044 5.6253 42.8132 5.97148 42.2198 6.6422C41.6044 7.31292 41.3187 8.17836 41.3187 9.23853V15.1452H39.5385Z" fill="black"/>
<path d="M52.7253 0.757324H54.4835V4.24073H57.8901V5.7769H54.4835V11.6403C54.4835 12.2461 54.6374 12.7221 54.945 13.0466C55.2527 13.3712 55.6923 13.5442 56.2418 13.5442H57.8681V15.1453H56.1758C55.1209 15.1453 54.2857 14.8424 53.6483 14.2366C53.011 13.6308 52.7033 12.787 52.7033 11.7485V5.7769H50.3956V4.24073H52.7033V0.757324H52.7253Z" fill="black"/>
<path d="M69.6044 4.24072V15.1453H67.8462V13.0466C67.5604 13.7822 67.0989 14.3448 66.4615 14.7342C65.8242 15.1237 65.0549 15.3184 64.1978 15.3184C62.9451 15.3184 61.956 14.9073 61.2088 14.1068C60.4615 13.3062 60.0879 12.2244 60.0879 10.9046V4.24072H61.8462V10.6234C61.8462 11.5537 62.0879 12.311 62.6154 12.8952C63.1209 13.4577 63.8022 13.7606 64.6154 13.7606C65.5604 13.7606 66.3517 13.4144 66.9451 12.7437C67.5385 12.073 67.8462 11.2075 67.8462 10.1474V4.24072H69.6044Z" fill="black"/>
<path d="M75.8684 15.3184C74.5936 15.3184 73.5607 14.9939 72.7914 14.3448C72.0002 13.6957 71.5827 12.8086 71.4728 11.6619H73.1431C73.2969 13.1115 74.22 13.8255 75.8684 13.8255C76.5717 13.8255 77.1431 13.6524 77.5827 13.3495C78.0222 13.0466 78.242 12.6355 78.242 12.1595C78.242 11.6619 78.0881 11.2508 77.7585 10.9695C77.4288 10.6883 77.0332 10.5152 76.5497 10.4503C76.0662 10.3854 75.5607 10.2988 75.0112 10.1906C74.4618 10.0825 73.9343 9.95264 73.4728 9.80119C72.9892 9.64974 72.5936 9.34683 72.264 8.89247C71.9343 8.43812 71.7805 7.83231 71.7805 7.07504C71.7805 6.18796 72.1321 5.45234 72.8574 4.91143C73.5827 4.37053 74.5277 4.06763 75.6925 4.06763C76.8574 4.06763 77.8684 4.37053 78.6376 4.97634C79.4068 5.58215 79.8244 6.38269 79.8903 7.39958H78.22C78.1541 6.77214 77.8464 6.29614 77.3409 5.99324C76.8354 5.69033 76.264 5.53888 75.6706 5.53888C75.0332 5.53888 74.5057 5.69033 74.1101 5.9716C73.7145 6.25287 73.4947 6.64232 73.4947 7.09668C73.4947 7.55104 73.6486 7.91885 73.9783 8.17848C74.3079 8.43812 74.7035 8.58957 75.187 8.63284C75.6706 8.67611 76.198 8.76266 76.7475 8.89247C77.2969 9.00065 77.8244 9.15211 78.3079 9.30356C78.7914 9.45501 79.187 9.77955 79.5167 10.2772C79.8464 10.7748 80.0002 11.4023 80.0002 12.1812C80.0002 13.1548 79.6266 13.9337 78.8794 14.5179C78.1321 15.102 77.0991 15.3184 75.8684 15.3184Z" fill="black"/>
</svg>
